<svg width="16" height="16" viewBox="0 0 16 16" fill="currentColor" xmlns="http://www.w3.org/2000/svg">
    <path d="M8 14C9.698 13.9583 11.112 13.3723 12.242 12.242C13.372 11.1117 13.958 9.69767 14 8C13.9583 6.302 13.3723 4.888 12.242 3.758C11.1117 2.628 9.69767 2.042 8 2C6.302 2.04167 4.888 2.62767 3.758 3.758C2.628 4.88833 2.042 6.30233 2 8C2.04167 9.698 2.62767 11.112 3.758 12.242C4.88833 13.372 6.30233 13.958 8 14ZM8 15C6.02067 14.948 4.37217 14.2632 3.0545 12.9455C1.73683 11.6278 1.052 9.97933 1 8C1.052 6.02067 1.73683 4.37217 3.0545 3.0545C4.37217 1.73683 6.02067 1.052 8 1C9.97933 1.052 11.6278 1.73683 12.9455 3.0545C14.2632 4.37217 14.948 6.02067 15 8C14.948 9.97933 14.2632 11.6278 12.9455 12.9455C11.6278 14.2632 9.97933 14.948 8 15ZM8 1.5C8.146 1.5 8.26583 1.54683 8.3595 1.6405C8.45317 1.73417 8.5 1.854 8.5 2V5C8.5 5.146 8.45317 5.26583 8.3595 5.3595C8.26583 5.45317 8.146 5.5 8 5.5C7.854 5.5 7.73417 5.45317 7.6405 5.3595C7.54683 5.26583 7.5 5.146 7.5 5V2C7.5 1.854 7.54683 1.73417 7.6405 1.6405C7.73417 1.54683 7.854 1.5 8 1.5ZM8 10.5C8.146 10.5 8.26583 10.5468 8.3595 10.6405C8.45317 10.7342 8.5 10.854 8.5 11V14C8.5 14.146 8.45317 14.2658 8.3595 14.3595C8.26583 14.4532 8.146 14.5 8 14.5C7.854 14.5 7.73417 14.4532 7.6405 14.3595C7.54683 14.2658 7.5 14.146 7.5 14V11C7.5 10.854 7.54683 10.7342 7.6405 10.6405C7.73417 10.5468 7.854 10.5 8 10.5ZM1.5 8C1.5 7.854 1.54683 7.73417 1.6405 7.6405C1.73417 7.54683 1.854 7.5 2 7.5H5C5.146 7.5 5.26583 7.54683 5.3595 7.6405C5.45317 7.73417 5.5 7.854 5.5 8C5.5 8.146 5.45317 8.26583 5.3595 8.3595C5.26583 8.45317 5.146 8.5 5 8.5H2C1.854 8.5 1.73417 8.45317 1.6405 8.3595C1.54683 8.26583 1.5 8.146 1.5 8ZM10.5 8C10.5 7.854 10.5468 7.73417 10.6405 7.6405C10.7342 7.54683 10.854 7.5 11 7.5H14C14.146 7.5 14.2658 7.54683 14.3595 7.6405C14.4532 7.73417 14.5 7.854 14.5 8C14.5 8.146 14.4532 8.26583 14.3595 8.3595C14.2658 8.45317 14.146 8.5 14 8.5H11C10.854 8.5 10.7342 8.45317 10.6405 8.3595C10.5468 8.26583 10.5 8.146 10.5 8Z"
    />
</svg>
